<svg width="50" height="50" viewBox="0 0 50 50" fill="none" xmlns="http://www.w3.org/2000/svg">
<path d="M1.66671 49.7917C1.36493 49.7903 1.07043 49.6989 0.820878 49.5292C0.606929 49.4092 0.427467 49.2361 0.299762 49.0267C0.172057 48.8173 0.100408 48.5785 0.0917109 48.3333V7.5C0.0896258 7.20374 0.177819 6.91388 0.344551 6.669C0.511283 6.42411 0.748645 6.23581 1.02504 6.12916L15.9292 0.295831C16.2693 0.178042 16.6391 0.178042 16.9792 0.295831L31.125 5.8375L48.0125 0.295831C48.2302 0.213018 48.4657 0.188295 48.6958 0.224092C48.926 0.25989 49.1428 0.354976 49.325 0.499997C49.5097 0.632513 49.6592 0.807981 49.7609 1.01124C49.8625 1.21451 49.9131 1.43946 49.9084 1.66666V42.5C49.9106 42.8043 49.8156 43.1014 49.6372 43.3479C49.4588 43.5945 49.2064 43.7777 48.9167 43.8708L31.4167 49.7042C31.0963 49.82 30.7455 49.82 30.425 49.7042L16.425 44.1917L2.07504 49.7042C1.94315 49.7504 1.80596 49.7798 1.66671 49.7917ZM16.5417 41.0417C16.7239 40.9983 16.9137 40.9983 17.0959 41.0417L30.8334 46.7875L46.9625 41.3333V3.67916L31.5042 8.75416C31.1838 8.87 30.833 8.87 30.5125 8.75416L16.425 3.24166L3.00838 8.375V46.2917L15.9292 41.3625C16.0718 41.2488 16.2438 41.178 16.425 41.1583L16.5417 41.0417Z" fill="#95E1D3"/>
<path d="M16.425 44.075C16.0382 44.075 15.6673 43.9213 15.3938 43.6479C15.1203 43.3744 14.9667 43.0034 14.9667 42.6167V1.66666C14.9667 1.27989 15.1203 0.908955 15.3938 0.635464C15.6673 0.361974 16.0382 0.208328 16.425 0.208328C16.8118 0.208328 17.1827 0.361974 17.4562 0.635464C17.7297 0.908955 17.8833 1.27989 17.8833 1.66666V42.5C17.8995 42.7011 17.8737 42.9033 17.8077 43.094C17.7417 43.2846 17.6368 43.4594 17.4997 43.6075C17.3627 43.7555 17.1964 43.8735 17.0114 43.954C16.8264 44.0344 16.6267 44.0756 16.425 44.075Z" fill="#95E1D3"/>
<path d="M31.0959 49.7917C30.7091 49.7917 30.3382 49.638 30.0647 49.3645C29.7912 49.091 29.6376 48.7201 29.6376 48.3333V7.50001C29.6376 7.11323 29.7912 6.7423 30.0647 6.46881C30.3382 6.19532 30.7091 6.04167 31.0959 6.04167C31.4827 6.04167 31.8536 6.19532 32.1271 6.46881C32.4006 6.7423 32.5542 7.11323 32.5542 7.50001V48.3333C32.5542 48.7201 32.4006 49.091 32.1271 49.3645C31.8536 49.638 31.4827 49.7917 31.0959 49.7917Z" fill="#95E1D3"/>
</svg>
