<svg width="64" height="56" viewBox="0 0 64 56" fill="none" xmlns="http://www.w3.org/2000/svg">
<path d="M27.1584 44.1875C26.863 44.1933 26.5726 44.111 26.3242 43.9511C26.0758 43.7912 25.8806 43.561 25.7635 43.2898C25.6464 43.0185 25.6128 42.7185 25.6668 42.4281C25.7209 42.1377 25.8602 41.8699 26.067 41.6589C26.2739 41.448 26.5388 41.3034 26.8281 41.2436C27.1174 41.1838 27.418 41.2115 27.6915 41.3232C27.965 41.4348 28.1991 41.6254 28.3639 41.8707C28.5286 42.1159 28.6167 42.4046 28.6167 42.7C28.6168 43.0895 28.4641 43.4635 28.1914 43.7417C27.9187 44.0198 27.5478 44.1799 27.1584 44.1875Z" fill="#95E1D3"/>
<path d="M37.8625 44.1875C38.6679 44.1875 39.3208 43.5346 39.3208 42.7292C39.3208 41.9238 38.6679 41.2708 37.8625 41.2708C37.0571 41.2708 36.4042 41.9238 36.4042 42.7292C36.4042 43.5346 37.0571 44.1875 37.8625 44.1875Z" fill="#95E1D3"/>
<path d="M38.6209 55.65H25.3792C21.9446 55.65 18.6508 54.2856 16.2222 51.857C13.7936 49.4284 12.4292 46.1346 12.4292 42.7C12.4292 39.2654 13.7936 35.9716 16.2222 33.543C18.6508 31.1144 21.9446 29.75 25.3792 29.75H38.6209C42.0554 29.75 45.3493 31.1144 47.7779 33.543C50.2065 35.9716 51.5709 39.2654 51.5709 42.7C51.5709 46.1346 50.2065 49.4284 47.7779 51.857C45.3493 54.2856 42.0554 55.65 38.6209 55.65ZM25.3792 32.6667C24.0616 32.6667 22.7569 32.9262 21.5396 33.4304C20.3223 33.9346 19.2162 34.6737 18.2846 35.6054C17.3529 36.537 16.6138 37.6431 16.1096 38.8604C15.6054 40.0777 15.3459 41.3824 15.3459 42.7C15.3459 44.0176 15.6054 45.3223 16.1096 46.5396C16.6138 47.7569 17.3529 48.863 18.2846 49.7946C19.2162 50.7263 20.3223 51.4654 21.5396 51.9696C22.7569 52.4738 24.0616 52.7333 25.3792 52.7333H38.6209C41.2819 52.7333 43.8339 51.6763 45.7155 49.7946C47.5971 47.913 48.6542 45.361 48.6542 42.7C48.6542 40.039 47.5971 37.487 45.7155 35.6054C43.8339 33.7237 41.2819 32.6667 38.6209 32.6667H25.3792Z" fill="#95E1D3"/>
<path d="M55.3334 36.925H47.5167C47.1299 36.925 46.759 36.7714 46.4855 36.4979C46.212 36.2244 46.0584 35.8534 46.0584 35.4667C46.0584 35.0799 46.212 34.709 46.4855 34.4355C46.759 34.162 47.1299 34.0083 47.5167 34.0083H55.3334C56.7389 34.0007 58.0846 33.4389 59.0785 32.4451C60.0723 31.4512 60.634 30.1055 60.6417 28.7C60.634 21.9621 57.9559 15.5019 53.1942 10.7347C48.4325 5.96756 41.9754 3.2821 35.2375 3.26667H29.0834C22.3404 3.27439 15.8758 5.95644 11.1078 10.7244C6.3398 15.4924 3.65774 21.957 3.65002 28.7C3.65768 30.1055 4.21941 31.4512 5.21326 32.4451C6.20711 33.4389 7.55286 34.0007 8.95836 34.0083H16.4834C16.8701 34.0083 17.2411 34.162 17.5146 34.4355C17.788 34.709 17.9417 35.0799 17.9417 35.4667C17.9417 35.8534 17.788 36.2244 17.5146 36.4979C17.2411 36.7714 16.8701 36.925 16.4834 36.925H8.81252C6.63112 36.925 4.53906 36.0584 2.99657 34.516C1.45408 32.9735 0.587524 30.8814 0.587524 28.7C0.591331 24.9658 1.33206 21.2691 2.76725 17.8217C4.20245 14.3743 6.30389 11.2441 8.95112 8.61041C11.5984 5.97672 14.7393 3.89137 18.194 2.47389C21.6487 1.0564 25.3492 0.334649 29.0834 0.350002H35.2375C42.7439 0.365415 49.9385 3.35416 55.2464 8.66201C60.5542 13.9699 63.5429 21.1644 63.5584 28.6708C63.5584 30.8549 62.6927 32.95 61.1511 34.4971C59.6094 36.0442 57.5174 36.9173 55.3334 36.925Z" fill="#95E1D3"/>
<path d="M6.24582 28.9625C4.65304 28.9377 3.07941 28.6111 1.60832 28C1.43011 27.9293 1.26759 27.8241 1.13006 27.6905C0.992534 27.5569 0.882701 27.3975 0.806848 27.2214C0.730994 27.0453 0.690608 26.856 0.688001 26.6643C0.685394 26.4726 0.720617 26.2822 0.791654 26.1042C0.855908 25.9245 0.956212 25.7598 1.0864 25.6204C1.2166 25.4809 1.37393 25.3695 1.54874 25.293C1.72356 25.2165 1.91216 25.1766 2.10296 25.1756C2.29377 25.1747 2.48276 25.2127 2.65832 25.2875C3.8038 25.726 5.01928 25.9533 6.24582 25.9583C8.25942 25.9441 10.2162 25.2891 11.8325 24.0882C13.4488 22.8872 14.6407 21.2027 15.2354 19.2789C15.8301 17.3551 15.7967 15.2918 15.1401 13.3883C14.4834 11.4847 13.2377 9.83967 11.5833 8.69165C11.3145 8.45692 11.1411 8.13175 11.0959 7.77773C11.0507 7.42371 11.1369 7.06541 11.3382 6.77069C11.5395 6.47596 11.8418 6.26528 12.188 6.17853C12.5342 6.09179 12.9002 6.135 13.2167 6.29999C15.4138 7.78656 17.0761 9.93879 17.9591 12.4403C18.8422 14.9418 18.8995 17.6606 18.1226 20.1971C17.3456 22.7336 15.7755 24.9539 13.6429 26.5317C11.5103 28.1095 8.92778 28.9615 6.27499 28.9625H6.24582Z" fill="#95E1D3"/>
<path d="M61.9251 28.9042C57.3674 28.5594 53.107 26.5096 49.9933 23.1635C46.8797 19.8174 45.1414 15.4207 45.1251 10.85C45.1189 8.6457 45.5245 6.45962 46.3209 4.40419C46.3916 4.22598 46.4968 4.06345 46.6304 3.92593C46.764 3.7884 46.9234 3.67857 47.0995 3.60272C47.2756 3.52686 47.4649 3.48648 47.6566 3.48387C47.8483 3.48126 48.0386 3.51649 48.2167 3.58752C48.3964 3.65178 48.561 3.75208 48.7005 3.88227C48.84 4.01246 48.9514 4.1698 49.0279 4.34461C49.1044 4.51942 49.1443 4.70802 49.1453 4.89883C49.1462 5.08964 49.1082 5.27863 49.0334 5.45419C48.2201 7.65298 47.9265 10.0101 48.1757 12.3413C48.4249 14.6724 49.2101 16.9142 50.4699 18.8914C51.7296 20.8686 53.4297 22.5274 55.4372 23.7383C57.4448 24.9491 59.7052 25.679 62.0417 25.8709C62.4285 25.8709 62.7994 26.0245 63.0729 26.298C63.3464 26.5715 63.5001 26.9424 63.5001 27.3292C63.5001 27.716 63.3464 28.0869 63.0729 28.3604C62.7994 28.6339 62.4285 28.7875 62.0417 28.7875L61.9251 28.9042Z" fill="#95E1D3"/>
</svg>
