<svg width="54" height="54" viewBox="0 0 54 54" fill="none" xmlns="http://www.w3.org/2000/svg">
<path d="M43.0417 53.25H10.9583C8.25092 53.25 5.65439 52.1745 3.73995 50.2601C1.82552 48.3456 0.75 45.7491 0.75 43.0417V10.9583C0.75 8.25092 1.82552 5.65439 3.73995 3.73995C5.65439 1.82552 8.25092 0.75 10.9583 0.75H43.0417C45.7491 0.75 48.3456 1.82552 50.2601 3.73995C52.1745 5.65439 53.25 8.25092 53.25 10.9583V43.0417C53.25 45.7491 52.1745 48.3456 50.2601 50.2601C48.3456 52.1745 45.7491 53.25 43.0417 53.25ZM10.9583 3.66667C9.02446 3.66667 7.1698 4.43489 5.80235 5.80235C4.43489 7.1698 3.66667 9.02446 3.66667 10.9583V43.0417C3.66667 44.9755 4.43489 46.8302 5.80235 48.1977C7.1698 49.5651 9.02446 50.3333 10.9583 50.3333H43.0417C44.9755 50.3333 46.8302 49.5651 48.1977 48.1977C49.5651 46.8302 50.3333 44.9755 50.3333 43.0417V10.9583C50.3333 9.02446 49.5651 7.1698 48.1977 5.80235C46.8302 4.43489 44.9755 3.66667 43.0417 3.66667H10.9583Z" fill="#95E1D3"/>
<path d="M2.20836 41.0292C1.9959 41.0315 1.78568 40.9854 1.59365 40.8945C1.40162 40.8035 1.23282 40.67 1.10003 40.5042C0.97495 40.3598 0.880088 40.1918 0.821052 40.0101C0.762016 39.8284 0.740005 39.6367 0.75632 39.4464C0.772635 39.256 0.826944 39.0709 0.916038 38.9019C1.00513 38.7329 1.1272 38.5835 1.27503 38.4625L14.9834 27C17.0624 25.276 19.7399 24.4461 22.4295 24.6921C25.1191 24.9381 27.6016 26.2399 29.3334 28.3125L32.6 32.2208C33.2202 32.9681 33.9839 33.5834 34.846 34.0303C35.7081 34.4772 36.6511 34.7468 37.6192 34.8229C38.5872 34.899 39.5607 34.7803 40.4821 34.4736C41.4035 34.1669 42.254 33.6786 42.9834 33.0375L50.8292 26.1833C51.1253 25.9329 51.5074 25.808 51.8943 25.8353C52.2811 25.8625 52.642 26.0397 52.9 26.3292C53.0268 26.4717 53.1237 26.6382 53.1852 26.8188C53.2466 26.9994 53.2712 27.1905 53.2576 27.3807C53.244 27.571 53.1925 27.7567 53.106 27.9267C53.0196 28.0967 52.8999 28.2478 52.7542 28.3708L44.9084 35.225C43.8859 36.1287 42.6921 36.8176 41.3981 37.2507C40.1041 37.6838 38.7361 37.8523 37.3757 37.7462C36.0152 37.6401 34.69 37.2615 33.4787 36.633C32.2675 36.0045 31.195 35.1388 30.325 34.0875L27 30.2667C26.3896 29.5324 25.6404 28.9258 24.7953 28.4814C23.9502 28.0371 23.0257 27.7637 22.0748 27.677C21.1239 27.5904 20.1653 27.692 19.2538 27.9762C18.3422 28.2604 17.4957 28.7216 16.7625 29.3333L3.0542 40.7083C2.80969 40.8957 2.51562 41.0072 2.20836 41.0292Z" fill="#95E1D3"/>
</svg>
