<svg width="54" height="54" viewBox="0 0 54 54" fill="none" xmlns="http://www.w3.org/2000/svg">
<path d="M27 45.1125C26.6153 45.107 26.2484 44.9498 25.9792 44.675L9.35416 28.05C9.21748 27.9144 9.10898 27.7531 9.03495 27.5754C8.96091 27.3977 8.92279 27.2071 8.92279 27.0146C8.92279 26.8221 8.96091 26.6315 9.03495 26.4538C9.10898 26.276 9.21748 26.1147 9.35416 25.9792L33.825 1.18751C33.9471 1.03746 34.1037 0.919259 34.2815 0.843058C34.4593 0.766857 34.653 0.734927 34.8458 0.750008H51.6167C52.0011 0.757475 52.3677 0.913517 52.6396 1.18541C52.9115 1.45729 53.0675 1.8239 53.075 2.20834L53.25 18.8042C53.2546 19.0001 53.2181 19.1947 53.1427 19.3756C53.0673 19.5565 52.9548 19.7195 52.8125 19.8542L28.0208 44.675C27.7498 44.9472 27.384 45.1039 27 45.1125ZM12.4167 27L27 41.5833L50.3333 18.25L50.1583 3.66667H35.575L12.4167 27Z" fill="#95E1D3"/>
<path d="M35.1375 53.25C34.7582 53.2464 34.3939 53.1007 34.1167 52.8417L1.18754 19.9125C1.05085 19.7769 0.942358 19.6156 0.86832 19.4379C0.794282 19.2602 0.756165 19.0696 0.756165 18.8771C0.756165 18.6846 0.794282 18.494 0.86832 18.3163C0.942358 18.1385 1.05085 17.9772 1.18754 17.8417C1.31847 17.7022 1.4766 17.591 1.65218 17.515C1.82775 17.439 2.01705 17.3997 2.20837 17.3997C2.39969 17.3997 2.58899 17.439 2.76456 17.515C2.94014 17.591 3.09827 17.7022 3.2292 17.8417L36.1875 50.7708C36.4566 51.0484 36.6071 51.4197 36.6071 51.8063C36.6071 52.1928 36.4566 52.5642 36.1875 52.8417C35.8999 53.1026 35.5259 53.248 35.1375 53.25Z" fill="#95E1D3"/>
<path d="M12.4167 53.075C12.0225 53.0741 11.6449 52.9167 11.3667 52.6375L1.24583 42.6625C1.0935 42.5263 0.970852 42.3602 0.885544 42.1746C0.800236 41.9889 0.754096 41.7876 0.75 41.5834C0.75 40.7958 0.75 40.6792 12.4167 29.2167C12.5522 29.08 12.7135 28.9715 12.8912 28.8975C13.069 28.8234 13.2596 28.7853 13.4521 28.7853C13.6446 28.7853 13.8352 28.8234 14.0129 28.8975C14.1906 28.9715 14.3519 29.08 14.4875 29.2167C14.7566 29.4942 14.907 29.8656 14.907 30.2521C14.907 30.6386 14.7566 31.01 14.4875 31.2875C11.3375 34.5542 6.29167 39.5417 4.30833 41.5834L12.4167 49.5458L22.7125 39.2209C22.9871 38.9462 23.3596 38.792 23.7479 38.792C24.1363 38.792 24.5087 38.9462 24.7833 39.2209C25.0579 39.4955 25.2122 39.8679 25.2122 40.2563C25.2122 40.6446 25.0579 41.0171 24.7833 41.2917L13.2917 52.6375C13.0591 52.8797 12.75 53.0343 12.4167 53.075Z" fill="#95E1D3"/>
<path d="M27 28.4583C26.8087 28.4607 26.6191 28.4229 26.4433 28.3476C26.2675 28.2722 26.1094 28.1609 25.9792 28.0208C25.8397 27.8899 25.7285 27.7318 25.6525 27.5562C25.5764 27.3806 25.5372 27.1913 25.5372 27C25.5372 26.8087 25.5764 26.6194 25.6525 26.4438C25.7285 26.2682 25.8397 26.1101 25.9792 25.9792L37.6458 14.3125C37.7799 14.1784 37.939 14.0721 38.1142 13.9995C38.2893 13.927 38.4771 13.8896 38.6667 13.8896C38.8562 13.8896 39.044 13.927 39.2191 13.9995C39.3943 14.0721 39.5534 14.1784 39.6875 14.3125C39.8216 14.4465 39.9279 14.6057 40.0004 14.7809C40.073 14.956 40.1103 15.1437 40.1103 15.3333C40.1103 15.5229 40.073 15.7106 40.0004 15.8858C39.9279 16.061 39.8216 16.2201 39.6875 16.3542L28.0208 28.0208C27.8906 28.1609 27.7325 28.2722 27.5567 28.3476C27.3809 28.4229 27.1913 28.4607 27 28.4583Z" fill="#95E1D3"/>
</svg>
