<svg width="56" height="56" viewBox="0 0 56 56" fill="none" xmlns="http://www.w3.org/2000/svg">
<path d="M19.6876 25.0834H5.10422C3.8097 25.0834 2.56777 24.5711 1.64967 23.6585C0.731577 22.7459 0.211929 21.507 0.204224 20.2125V5.62919C0.211877 4.33199 0.730583 3.0901 1.64786 2.17282C2.56513 1.25555 3.80702 0.73684 5.10422 0.729187H19.6876C20.9848 0.73684 22.2266 1.25555 23.1439 2.17282C24.0612 3.0901 24.5799 4.33199 24.5876 5.62919V20.2125C24.5798 21.507 24.0602 22.7459 23.1421 23.6585C22.224 24.5711 20.9821 25.0834 19.6876 25.0834ZM5.10422 3.61669C4.58056 3.62422 4.08046 3.8356 3.71013 4.20593C3.3398 4.57625 3.12843 5.07635 3.12089 5.60002V20.1834C3.12089 20.7094 3.32985 21.2138 3.70179 21.5858C4.07374 21.9577 4.57821 22.1667 5.10422 22.1667H19.6876C20.2136 22.1667 20.718 21.9577 21.09 21.5858C21.4619 21.2138 21.6709 20.7094 21.6709 20.1834V5.60002C21.6634 5.07635 21.452 4.57625 21.0816 4.20593C20.7113 3.8356 20.2112 3.62422 19.6876 3.61669H5.10422Z" fill="#95E1D3"/>
<path d="M50.8959 25.0833H36.3126C35.013 25.0833 33.7667 24.5671 32.8478 23.6482C31.9288 22.7292 31.4126 21.4829 31.4126 20.1833V5.60001C31.4203 4.30281 31.939 3.06092 32.8562 2.14365C33.7735 1.22637 35.0154 0.707665 36.3126 0.700012H50.8959C52.1931 0.707665 53.435 1.22637 54.3523 2.14365C55.2696 3.06092 55.7883 4.30281 55.7959 5.60001V20.1833C55.7959 21.4829 55.2797 22.7292 54.3608 23.6482C53.4418 24.5671 52.1955 25.0833 50.8959 25.0833ZM36.3126 3.61668C35.7889 3.62421 35.2888 3.83559 34.9185 4.20592C34.5482 4.57624 34.3368 5.07635 34.3293 5.60001V20.1833C34.3293 20.7094 34.5382 21.2138 34.9102 21.5858C35.2821 21.9577 35.7866 22.1667 36.3126 22.1667H50.8959C51.4219 22.1667 51.9264 21.9577 52.2984 21.5858C52.6703 21.2138 52.8793 20.7094 52.8793 20.1833V5.60001C52.8717 5.07635 52.6603 4.57624 52.29 4.20592C51.9197 3.83559 51.4196 3.62421 50.8959 3.61668H36.3126Z" fill="#95E1D3"/>
<path d="M19.6876 55.2709H5.10422C3.80702 55.2632 2.56513 54.7445 1.64786 53.8272C0.730583 52.9099 0.211877 51.6681 0.204224 50.3709V35.7875C0.211929 34.493 0.731577 33.2542 1.64967 32.3415C2.56777 31.4289 3.8097 30.9167 5.10422 30.9167H19.6876C20.9871 30.9167 22.2334 31.4329 23.1524 32.3519C24.0713 33.2708 24.5876 34.5171 24.5876 35.8167V50.4C24.5723 51.6921 24.0502 52.9266 23.1338 53.8376C22.2173 54.7486 20.9797 55.2633 19.6876 55.2709ZM5.10422 33.8334C4.57821 33.8334 4.07374 34.0423 3.70179 34.4143C3.32985 34.7862 3.12089 35.2907 3.12089 35.8167V50.4C3.12843 50.9237 3.3398 51.4238 3.71013 51.7941C4.08046 52.1644 4.58056 52.3758 5.10422 52.3834H19.6876C20.2112 52.3758 20.7113 52.1644 21.0816 51.7941C21.452 51.4238 21.6634 50.9237 21.6709 50.4V35.8167C21.6709 35.2907 21.4619 34.7862 21.09 34.4143C20.718 34.0423 20.2136 33.8334 19.6876 33.8334H5.10422Z" fill="#95E1D3"/>
<path d="M50.8959 55.2709H36.3126C35.0154 55.2632 33.7735 54.7445 32.8562 53.8272C31.939 52.9099 31.4203 51.6681 31.4126 50.3709V35.7875C31.4203 34.493 31.94 33.2542 32.858 32.3415C33.7761 31.4289 35.0181 30.9167 36.3126 30.9167H50.8959C52.1955 30.9167 53.4418 31.4329 54.3608 32.3519C55.2797 33.2708 55.7959 34.5171 55.7959 35.8167V50.4C55.7807 51.6921 55.2586 52.9266 54.3421 53.8376C53.4257 54.7486 52.1881 55.2633 50.8959 55.2709ZM36.3126 33.8042C35.7866 33.8042 35.2821 34.0131 34.9102 34.3851C34.5382 34.757 34.3293 35.2615 34.3293 35.7875V50.3709C34.3368 50.8945 34.5482 51.3946 34.9185 51.7649C35.2888 52.1353 35.7889 52.3467 36.3126 52.3542H50.8959C51.4196 52.3467 51.9197 52.1353 52.29 51.7649C52.6603 51.3946 52.8717 50.8945 52.8793 50.3709V35.7875C52.8793 35.2615 52.6703 34.757 52.2984 34.3851C51.9264 34.0131 51.4219 33.8042 50.8959 33.8042H36.3126Z" fill="#95E1D3"/>
</svg>
