<svg width="30" height="21" viewBox="0 0 30 21" fill="none" xmlns="http://www.w3.org/2000/svg">
<path d="M29.3333 10.7731C29.3364 10.9178 29.2893 11.0592 29.2 11.1731L22.3733 20.3064C22.3112 20.3902 22.231 20.4589 22.1387 20.5074C22.0463 20.5558 21.9442 20.5829 21.84 20.5864H8.17335C8.06684 20.5849 7.96212 20.5588 7.86732 20.5103C7.77251 20.4617 7.69017 20.392 7.62668 20.3064L0.800013 11.1731C0.715465 11.0569 0.669922 10.9168 0.669922 10.7731C0.669922 10.6294 0.715465 10.4893 0.800013 10.3731L7.62668 1.23976C7.69085 1.15592 7.77365 1.08818 7.86854 1.04189C7.96342 0.995609 8.06778 0.972054 8.17335 0.973091H21.84C21.9433 0.9741 22.0451 0.998642 22.1375 1.04485C22.2299 1.09105 22.3106 1.15771 22.3733 1.23976L29.2 10.3731C29.2874 10.488 29.3343 10.6287 29.3333 10.7731ZM21.5067 19.2531L27.84 10.7731L21.5067 2.30642H8.50668L2.16001 10.7731L8.50668 19.2531H21.5067Z" fill="#95E1D3"/>
<path d="M21.7734 10.7732C21.7765 10.9179 21.7294 11.0593 21.6401 11.1732L18.5867 15.2665C18.5239 15.3486 18.4433 15.4152 18.3508 15.4614C18.2584 15.5077 18.1567 15.5322 18.0534 15.5332H11.9467C11.8434 15.5322 11.7417 15.5077 11.6493 15.4614C11.5569 15.4152 11.4762 15.3486 11.4134 15.2665L8.33339 11.1732C8.24251 11.0597 8.19299 10.9186 8.19299 10.7732C8.19299 10.6278 8.24251 10.4867 8.33339 10.3732L11.3867 6.2932C11.4473 6.20881 11.5275 6.14042 11.6204 6.09396C11.7134 6.0475 11.8162 6.02436 11.9201 6.02654H18.0267C18.1306 6.02436 18.2334 6.0475 18.3263 6.09396C18.4193 6.14042 18.4995 6.20881 18.5601 6.2932L21.6667 10.3732C21.7447 10.4914 21.7821 10.6318 21.7734 10.7732ZM17.6667 14.1999L20.3334 10.7732L17.6667 7.3332H12.3334L9.66673 10.7732L12.3334 14.1999H17.6667Z" fill="#95E1D3"/>
</svg>
