<svg width="24" height="24" viewBox="0 0 24 24" fill="none" xmlns="http://www.w3.org/2000/svg">
<path d="M12.44 22.9864C10.6258 22.9881 8.83782 22.5536 7.22665 21.7198C7.14873 21.6795 7.07951 21.6243 7.02294 21.5572C6.96636 21.4902 6.92354 21.4127 6.89692 21.3291C6.8703 21.2456 6.8604 21.1576 6.86779 21.0702C6.87518 20.9828 6.89971 20.8977 6.93998 20.8198C6.98026 20.7418 7.03548 20.6726 7.10251 20.616C7.16953 20.5595 7.24704 20.5167 7.33062 20.49C7.41419 20.4634 7.50218 20.4535 7.58958 20.4609C7.67698 20.4683 7.76207 20.4928 7.83999 20.5331C9.99798 21.631 12.4804 21.9109 14.8286 21.3211C17.1769 20.7314 19.2325 19.3118 20.6157 17.3246C21.999 15.3375 22.6164 12.9169 22.354 10.5099C22.0917 8.10296 20.9672 5.87225 19.1883 4.22974C17.4094 2.58724 15.0963 1.6439 12.6761 1.57395C10.2559 1.504 7.89214 2.31216 6.02136 3.84917C4.15057 5.38619 2.89915 7.54823 2.49819 9.93601C2.09724 12.3238 2.57384 14.776 3.83999 16.8398C3.9293 16.9925 3.95559 17.174 3.91326 17.3457C3.87094 17.5175 3.76335 17.666 3.61332 17.7598C3.53815 17.8057 3.45462 17.8363 3.36754 17.8498C3.28047 17.8633 3.19159 17.8594 3.10604 17.8383C3.02049 17.8172 2.93997 17.7794 2.86913 17.727C2.79828 17.6746 2.73853 17.6087 2.69332 17.5331C1.23013 15.19 0.673091 12.3932 1.12691 9.66825C1.58073 6.94334 3.01416 4.478 5.15777 2.7356C7.30139 0.993192 10.0076 0.0937008 12.7677 0.206184C15.5279 0.318666 18.1519 1.43538 20.1467 3.34643C21.6871 4.77423 22.8005 6.60202 23.3625 8.62581C23.9246 10.6496 23.9131 12.7898 23.3295 14.8074C22.746 16.8251 21.6131 18.6409 20.0576 20.0522C18.502 21.4635 16.5848 22.4147 14.52 22.7998C13.8341 22.9274 13.1377 22.9899 12.44 22.9864Z" fill="#95E1D3"/>
<path d="M2.09333 23.6797C1.83486 23.6748 1.58158 23.6064 1.35589 23.4803C1.13019 23.3543 0.939025 23.1746 0.799301 22.9571C0.659577 22.7396 0.575598 22.491 0.554789 22.2333C0.533979 21.9757 0.576982 21.7168 0.679993 21.4797L2.70666 16.9197C2.7821 16.7581 2.91801 16.6326 3.08512 16.5703C3.25222 16.5079 3.43712 16.5137 3.59999 16.5864C3.76066 16.6591 3.88595 16.7926 3.94842 16.9575C4.0109 17.1225 4.00547 17.3054 3.93333 17.4664L1.89333 22.0264C1.86736 22.061 1.85333 22.1031 1.85333 22.1464C1.85333 22.1897 1.86736 22.2318 1.89333 22.2664C1.92245 22.2997 1.9607 22.3238 2.00335 22.3356C2.046 22.3475 2.09118 22.3466 2.13333 22.3331L7.26666 20.5064C7.34881 20.4748 7.4365 20.4601 7.52446 20.4632C7.61242 20.4664 7.69885 20.4872 7.77855 20.5246C7.85824 20.5619 7.92957 20.615 7.98825 20.6806C8.04692 20.7462 8.09173 20.823 8.11999 20.9064C8.18004 21.0726 8.17163 21.2558 8.09662 21.4159C8.02162 21.5759 7.88615 21.6995 7.71999 21.7597L2.62666 23.5864C2.45605 23.6497 2.27531 23.6814 2.09333 23.6797Z" fill="#95E1D3"/>
</svg>
