<svg width="38" height="38" viewBox="0 0 38 38" fill="none" xmlns="http://www.w3.org/2000/svg">
<path d="M18.9999 37.2175C18.367 37.2188 17.7413 37.0816 17.1669 36.8156C16.5926 36.5496 16.0833 36.1611 15.6749 35.6775L14.1349 33.9275C13.8735 33.6201 13.5452 33.3768 13.1751 33.216C12.805 33.0552 12.403 32.9813 11.9999 33L9.65495 33.21C9.02262 33.2628 8.38638 33.1773 7.79035 32.9597C7.19432 32.742 6.65277 32.3973 6.20326 31.9495C5.75375 31.5016 5.40704 30.9613 5.18717 30.3661C4.96729 29.7709 4.87952 29.135 4.92995 28.5025L4.99995 26.105C5.03253 25.6901 4.96533 25.2734 4.80397 24.8898C4.64261 24.5062 4.39179 24.1668 4.07245 23.9L2.32245 22.3775C1.8365 21.9685 1.44585 21.4581 1.17785 20.8823C0.909857 20.3064 0.770996 19.6789 0.770996 19.0437C0.770996 18.4086 0.909857 17.7811 1.17785 17.2052C1.44585 16.6293 1.8365 16.119 2.32245 15.71L4.07245 14.17C4.38463 13.9049 4.63093 13.5709 4.79189 13.1943C4.95286 12.8177 5.02408 12.4088 4.99995 12L4.82495 9.60248C4.77218 8.97015 4.85759 8.33391 5.07525 7.73788C5.29291 7.14186 5.63762 6.60031 6.08546 6.1508C6.53331 5.70129 7.07358 5.35457 7.66879 5.1347C8.26401 4.91483 8.89993 4.82706 9.53245 4.87748L11.8949 4.99998C12.3041 5.04102 12.7171 4.98473 13.1003 4.8357C13.4835 4.68668 13.826 4.44914 14.0999 4.14248L15.6224 2.39248C16.0305 1.89014 16.5454 1.48501 17.1296 1.20652C17.7138 0.928027 18.3527 0.783173 18.9999 0.78248C19.6329 0.781163 20.2586 0.918328 20.8329 1.18436C21.4073 1.45039 21.9166 1.83884 22.3249 2.32248L23.8649 4.07248C24.1281 4.3778 24.4567 4.61979 24.8264 4.78038C25.1961 4.94098 25.5972 5.01604 25.9999 4.99998L28.3449 4.78998C28.9773 4.73721 29.6135 4.82262 30.2095 5.04028C30.8056 5.25795 31.3471 5.60265 31.7966 6.0505C32.2461 6.49834 32.5929 7.03861 32.8127 7.63382C33.0326 8.22904 33.1204 8.86496 33.0699 9.49748L32.9999 11.895C32.9674 12.3099 33.0346 12.7265 33.1959 13.1101C33.3573 13.4937 33.6081 13.8331 33.9274 14.1L35.6774 15.6225C36.1634 16.0315 36.554 16.5418 36.822 17.1177C37.09 17.6936 37.2289 18.3211 37.2289 18.9562C37.2289 19.5914 37.09 20.2189 36.822 20.7948C36.554 21.3706 36.1634 21.881 35.6774 22.29L33.9274 23.83C33.6153 24.0951 33.369 24.4291 33.208 24.8057C33.047 25.1823 32.9758 25.5911 32.9999 26L33.2099 28.3625C33.2627 28.9948 33.1773 29.6311 32.9596 30.2271C32.742 30.8231 32.3973 31.3647 31.9494 31.8142C31.5016 32.2637 30.9613 32.6104 30.3661 32.8303C29.7709 33.0501 29.135 33.1379 28.5024 33.0875L26.1049 33C25.6902 32.9688 25.274 33.0367 24.8907 33.198C24.5073 33.3592 24.1677 33.6093 23.8999 33.9275L22.3774 35.6775C21.9699 36.1634 21.4613 36.5545 20.887 36.8235C20.3127 37.0925 19.6866 37.233 19.0524 37.235L18.9999 37.2175ZM12.1749 31.25C12.8079 31.2487 13.4336 31.3858 14.0079 31.6519C14.5823 31.9179 15.0916 32.3063 15.4999 32.79L17.0399 34.54C17.2832 34.8325 17.5883 35.0674 17.9333 35.2278C18.2783 35.3881 18.6545 35.47 19.0349 35.4675C19.417 35.4644 19.794 35.3801 20.1409 35.2201C20.4879 35.0602 20.7969 34.8284 21.0474 34.54L22.5699 32.79C23.0111 32.2538 23.5764 31.8334 24.2168 31.565C24.8572 31.2967 25.5533 31.1885 26.2449 31.25L28.6074 31.425C28.9859 31.4599 29.3673 31.4105 29.7244 31.2804C30.0814 31.1502 30.4052 30.9426 30.6724 30.6725C30.941 30.4005 31.1474 30.0734 31.2773 29.7139C31.4073 29.3543 31.4576 28.9709 31.4249 28.59L31.2499 26.1925C31.1859 25.5014 31.2893 24.805 31.5512 24.1623C31.8132 23.5196 32.2261 22.9494 32.7549 22.5L34.5049 20.96C34.7993 20.7239 35.0381 20.4259 35.2045 20.0872C35.3708 19.7484 35.4606 19.3773 35.4674 19C35.4643 18.618 35.38 18.241 35.2201 17.894C35.0602 17.547 34.8284 17.238 34.5399 16.9875L32.7899 15.465C32.2498 15.0194 31.827 14.4482 31.5586 13.8015C31.2901 13.1548 31.1842 12.4521 31.2499 11.755L31.4249 9.39248C31.4586 9.01416 31.4086 8.63306 31.2786 8.2762C31.1486 7.91934 30.9416 7.59545 30.6724 7.32748C30.4011 7.05791 30.0741 6.85088 29.7144 6.7209C29.3547 6.59092 28.9709 6.54112 28.5899 6.57498L26.1924 6.74998C25.501 6.8185 24.8032 6.71723 24.1597 6.45496C23.5163 6.19269 22.9465 5.77735 22.4999 5.24498L20.9599 3.49498C20.7238 3.20061 20.4259 2.96179 20.0871 2.79545C19.7484 2.62912 19.3772 2.53934 18.9999 2.53248C18.6179 2.5356 18.2409 2.61991 17.894 2.77982C17.547 2.93972 17.238 3.17157 16.9874 3.45998L15.4649 5.20998C15.0183 5.74894 14.447 6.17087 13.8006 6.43922C13.1541 6.70757 12.4519 6.81423 11.7549 6.74998L9.39245 6.57498C9.01412 6.54132 8.63303 6.59129 8.27617 6.72133C7.91931 6.85137 7.59542 7.05831 7.32745 7.32748C7.05169 7.60538 6.84114 7.94109 6.711 8.31032C6.58086 8.67955 6.53439 9.07309 6.57495 9.46248L6.74995 11.8075C6.81396 12.4986 6.71062 13.1949 6.44866 13.8376C6.1867 14.4804 5.77382 15.0505 5.24495 15.5L3.49495 17.04C3.20058 17.2761 2.96176 17.5741 2.79542 17.9128C2.62908 18.2515 2.5393 18.6227 2.53245 19C2.53557 19.382 2.61988 19.759 2.77978 20.106C2.93969 20.4529 3.17153 20.7619 3.45995 21.0125L5.20995 22.535C5.75008 22.9806 6.17285 23.5517 6.44131 24.1985C6.70976 24.8452 6.81573 25.5478 6.74995 26.245L6.57495 28.6075C6.54129 28.9858 6.59125 29.3669 6.72129 29.7238C6.85134 30.0806 7.05828 30.4045 7.32745 30.6725C7.59878 30.9421 7.92575 31.1491 8.28547 31.2791C8.64519 31.409 9.02896 31.4588 9.40995 31.425L11.8074 31.25H12.1749Z" fill="#95E1D3"/>
<path d="M19 25.125C17.3755 25.125 15.8176 24.4797 14.669 23.331C13.5203 22.1824 12.875 20.6245 12.875 19C12.875 17.3755 13.5203 15.8176 14.669 14.669C15.8176 13.5203 17.3755 12.875 19 12.875C20.6245 12.875 22.1824 13.5203 23.331 14.669C24.4797 15.8176 25.125 17.3755 25.125 19C25.125 20.6245 24.4797 22.1824 23.331 23.331C22.1824 24.4797 20.6245 25.125 19 25.125ZM19 14.625C17.8397 14.625 16.7269 15.0859 15.9064 15.9064C15.0859 16.7269 14.625 17.8397 14.625 19C14.625 20.1603 15.0859 21.2731 15.9064 22.0936C16.7269 22.9141 17.8397 23.375 19 23.375C20.1603 23.375 21.2731 22.9141 22.0936 22.0936C22.9141 21.2731 23.375 20.1603 23.375 19C23.375 17.8397 22.9141 16.7269 22.0936 15.9064C21.2731 15.0859 20.1603 14.625 19 14.625Z" fill="#95E1D3"/>
</svg>
