<svg width="36" height="36" viewBox="0 0 36 36" fill="none" xmlns="http://www.w3.org/2000/svg">
<path d="M18.0001 23.3724C16.9375 23.3724 15.8988 23.0574 15.0153 22.467C14.1318 21.8767 13.4432 21.0376 13.0365 20.0559C12.6299 19.0742 12.5235 17.994 12.7308 16.9518C12.9381 15.9097 13.4498 14.9524 14.2011 14.201C14.9525 13.4497 15.9098 12.938 16.9519 12.7307C17.9941 12.5234 19.0743 12.6298 20.056 13.0364C21.0377 13.443 21.8768 14.1316 22.4671 15.0151C23.0575 15.8986 23.3726 16.9374 23.3726 17.9999C23.368 19.4234 22.8004 20.7872 21.7939 21.7938C20.7874 22.8003 19.4235 23.3678 18.0001 23.3724ZM18.0001 14.3774C17.2836 14.3774 16.5832 14.5899 15.9875 14.9879C15.3918 15.386 14.9275 15.9517 14.6533 16.6137C14.3791 17.2756 14.3074 18.004 14.4472 18.7067C14.5869 19.4094 14.932 20.0548 15.4386 20.5614C15.9452 21.0681 16.5907 21.4131 17.2934 21.5528C17.996 21.6926 18.7244 21.6209 19.3863 21.3467C20.0483 21.0725 20.614 20.6082 21.0121 20.0125C21.4101 19.4168 21.6226 18.7164 21.6226 17.9999C21.6226 17.0392 21.2409 16.1178 20.5616 15.4385C19.8822 14.7591 18.9608 14.3774 18.0001 14.3774Z" fill="#95E1D3"/>
<path d="M18 29.3749C15.7502 29.3749 13.551 28.7077 11.6804 27.4578C9.80979 26.2079 8.35182 24.4314 7.49088 22.3529C6.62993 20.2744 6.40467 17.9873 6.84357 15.7807C7.28248 13.5742 8.36584 11.5474 9.95667 9.95654C11.5475 8.36572 13.5743 7.28236 15.7809 6.84345C17.9874 6.40454 20.2745 6.62981 22.353 7.49075C24.4315 8.3517 26.2081 9.80966 27.458 11.6803C28.7079 13.5509 29.375 15.7501 29.375 17.9999C29.375 21.0167 28.1766 23.91 26.0433 26.0432C23.9101 28.1764 21.0168 29.3749 18 29.3749ZM18 8.37488C16.0964 8.37488 14.2355 8.93938 12.6526 9.99699C11.0698 11.0546 9.83616 12.5578 9.10766 14.3166C8.37917 16.0753 8.18856 18.0106 8.55995 19.8776C8.93133 21.7447 9.84802 23.4597 11.1941 24.8058C12.5402 26.1519 14.2552 27.0686 16.1223 27.4399C17.9893 27.8113 19.9246 27.6207 21.6833 26.8922C23.4421 26.1637 24.9453 24.9301 26.0029 23.3472C27.0605 21.7644 27.625 19.9035 27.625 17.9999C27.6204 15.4486 26.6048 13.0031 24.8008 11.1991C22.9968 9.39505 20.5513 8.37951 18 8.37488Z" fill="#95E1D3"/>
<path d="M18.0001 35.3774C14.5631 35.3774 11.2034 34.3583 8.34564 32.4488C5.48793 30.5393 3.26061 27.8253 1.94535 24.65C0.630088 21.4747 0.285956 17.9807 0.95647 14.6098C1.62698 11.2389 3.28203 8.14248 5.71232 5.7122C8.14261 3.28191 11.239 1.62686 14.6099 0.956348C17.9808 0.285834 21.4748 0.629966 24.6501 1.94523C27.8255 3.26049 30.5395 5.48781 32.4489 8.34552C34.3584 11.2032 35.3776 14.563 35.3776 17.9999C35.3729 22.6073 33.5406 27.0247 30.2827 30.2826C27.0248 33.5405 22.6074 35.3728 18.0001 35.3774ZM18.0001 2.37244C14.9092 2.37244 11.8878 3.28898 9.31789 5.00615C6.74796 6.72332 4.74495 9.16401 3.56214 12.0196C2.37933 14.8751 2.06985 18.0173 2.67284 21.0487C3.27583 24.0802 4.76421 26.8647 6.94975 29.0503C9.1353 31.2358 11.9199 32.7242 14.9513 33.3272C17.9827 33.9302 21.1249 33.6207 23.9805 32.4379C26.836 31.2551 29.2767 29.252 30.9939 26.6821C32.711 24.1122 33.6276 21.0908 33.6276 17.9999C33.6276 15.9477 33.2233 13.9156 32.438 12.0196C31.6526 10.1235 30.5015 8.40078 29.0504 6.94963C27.5992 5.49849 25.8765 4.34737 23.9805 3.56202C22.0844 2.77666 20.0523 2.37244 18.0001 2.37244Z" fill="#95E1D3"/>
</svg>
