<svg width="19" height="19" viewBox="0 0 19 19" fill="none" xmlns="http://www.w3.org/2000/svg">
<path d="M9.00195 18.0409C6.54195 18.0409 6.25195 18.0279 5.29195 17.9859C4.54332 17.9613 3.80438 17.8091 3.10695 17.5359C2.51013 17.3036 1.96813 16.9498 1.51537 16.4969C1.06261 16.0439 0.708987 15.5018 0.476953 14.9049C0.214259 14.2049 0.072571 13.4654 0.0579531 12.7179C0.00195312 11.7599 0.00195312 11.4459 0.00195312 9.00488C0.00195312 6.53788 0.0149531 6.24988 0.0579531 5.29488C0.0728908 4.5484 0.214574 3.80989 0.476953 3.11088C0.70872 2.51322 1.06258 1.97046 1.51595 1.51727C1.96931 1.06408 2.5122 0.710423 3.10995 0.478883C3.8086 0.215085 4.5473 0.073027 5.29395 0.0588827C6.24895 0.00488271 6.56295 0.00488281 9.00195 0.00488281C11.482 0.00488281 11.767 0.0178827 12.712 0.0588827C13.46 0.0728827 14.202 0.214883 14.902 0.478883C15.4995 0.710691 16.0423 1.06444 16.4956 1.5176C16.949 1.97075 17.3029 2.51338 17.535 3.11088C17.802 3.82088 17.945 4.57088 17.956 5.32788C18.012 6.28588 18.012 6.59888 18.012 9.03888C18.012 11.4789 17.998 11.7989 17.956 12.7459C17.941 13.4941 17.799 14.2343 17.536 14.9349C17.3033 15.5322 16.949 16.0746 16.4956 16.5277C16.0422 16.9808 15.4995 17.3347 14.902 17.5669C14.202 17.8289 13.463 17.9709 12.716 17.9859C11.761 18.0409 11.448 18.0409 9.00195 18.0409ZM8.96795 1.58788C6.52195 1.58788 6.26795 1.59988 5.31295 1.64288C4.7426 1.65034 4.17775 1.75553 3.64295 1.95388C3.25288 2.1034 2.89847 2.33299 2.60257 2.62786C2.30667 2.92274 2.07583 3.27634 1.92495 3.66588C1.72495 4.20588 1.61995 4.77688 1.61395 5.35288C1.56095 6.32188 1.56095 6.57588 1.56095 9.00488C1.56095 11.4049 1.56995 11.6959 1.61395 12.6589C1.62295 13.2289 1.72795 13.7939 1.92495 14.3289C2.23095 15.1159 2.85495 15.7379 3.64395 16.0399C4.17806 16.2395 4.7428 16.3447 5.31295 16.3509C6.28095 16.4069 6.53595 16.4069 8.96795 16.4069C11.421 16.4069 11.675 16.3949 12.622 16.3509C13.1924 16.344 13.7573 16.2388 14.292 16.0399C14.6799 15.8892 15.0323 15.6595 15.3267 15.3653C15.6211 15.071 15.8511 14.7188 16.002 14.3309C16.202 13.7909 16.307 13.2189 16.313 12.6429H16.324C16.367 11.6869 16.367 11.4319 16.367 8.98888C16.367 6.54588 16.356 6.28888 16.313 5.33388C16.3039 4.76434 16.1988 4.20041 16.002 3.66588C15.8514 3.27743 15.6216 2.92459 15.3272 2.62983C15.0328 2.33508 14.6802 2.10487 14.292 1.95388C13.757 1.75388 13.192 1.64988 12.622 1.64288C11.655 1.58788 11.402 1.58788 8.96795 1.58788ZM9.00195 13.6239C8.08753 13.6245 7.19346 13.3539 6.43284 12.8463C5.67222 12.3387 5.07921 11.617 4.72882 10.7723C4.37842 9.92771 4.28638 8.99813 4.46434 8.10119C4.6423 7.20424 5.08227 6.38022 5.72858 5.73334C6.3749 5.08647 7.19854 4.64579 8.09533 4.46706C8.99212 4.28832 9.92178 4.37955 10.7667 4.72921C11.6116 5.07888 12.3339 5.67126 12.8421 6.43144C13.3504 7.19162 13.6218 8.08545 13.622 8.99988C13.6204 10.2251 13.1332 11.3997 12.2673 12.2664C11.4013 13.1331 10.2271 13.6212 9.00195 13.6239ZM9.00195 5.99788C8.40861 5.99788 7.82859 6.17383 7.33524 6.50347C6.84189 6.83312 6.45738 7.30165 6.23031 7.84983C6.00325 8.39801 5.94384 9.00121 6.0596 9.58315C6.17535 10.1651 6.46108 10.6996 6.88063 11.1192C7.30019 11.5388 7.83474 11.8245 8.41668 11.9402C8.99862 12.056 9.60182 11.9966 10.15 11.7695C10.6982 11.5425 11.1667 11.1579 11.4964 10.6646C11.826 10.1712 12.002 9.59123 12.002 8.99788C12.0001 8.2028 11.6834 7.44081 11.1212 6.8786C10.559 6.3164 9.79703 5.99973 9.00195 5.99788ZM13.802 5.28488C13.6604 5.28436 13.5203 5.25595 13.3897 5.20129C13.2591 5.14663 13.1406 5.06679 13.0409 4.96632C12.8394 4.7634 12.7269 4.48879 12.728 4.20288C12.729 3.91698 12.8436 3.64321 13.0465 3.44179C13.2494 3.24038 13.524 3.12782 13.81 3.12888C14.0959 3.12994 14.3696 3.24454 14.571 3.44745C14.7725 3.65036 14.885 3.92498 14.884 4.21088C14.8829 4.49679 14.7683 4.77056 14.5654 4.97197C14.3625 5.17339 14.0879 5.28594 13.802 5.28488Z" fill="#95E1D3"/>
</svg>
