<svg width="16" height="18" viewBox="0 0 16 18" fill="none" xmlns="http://www.w3.org/2000/svg">
<path d="M12.6 2.82C12.6 2.82 13.11 3.32 12.6 2.82C11.9165 2.03962 11.5397 1.03743 11.54 0H8.45003V12.4C8.4262 13.071 8.1429 13.7066 7.6598 14.1729C7.17669 14.6393 6.53148 14.8999 5.86003 14.9C4.44003 14.9 3.26003 13.74 3.26003 12.3C3.26003 10.58 4.92003 9.29 6.63003 9.82V6.66C3.18003 6.2 0.160034 8.88 0.160034 12.3C0.160034 15.63 2.92003 18 5.85003 18C8.99004 18 11.54 15.45 11.54 12.3V6.01C12.793 6.90985 14.2974 7.39265 15.84 7.39V4.3C15.84 4.3 13.96 4.39 12.6 2.82Z" fill="#95E1D3"/>
</svg>
