<svg width="16" height="20" viewBox="0 0 16 20" fill="none" xmlns="http://www.w3.org/2000/svg">
<path d="M6.67002 13.0972C6.16402 15.8232 5.54802 18.4372 3.72002 19.8022C3.15702 15.6822 4.54902 12.5872 5.19502 9.30219C4.09302 7.39219 5.32802 3.54719 7.65202 4.49419C10.512 5.66019 5.17502 11.5962 8.75803 12.3382C12.499 13.1122 14.027 5.65519 11.707 3.22919C8.35502 -0.271813 1.95002 3.15019 2.73802 8.16319C2.93002 9.38919 4.15902 9.76119 3.22902 11.4532C1.08402 10.9622 0.444024 9.22019 0.527024 6.89719C0.659024 3.09719 3.84402 0.435187 7.03802 0.0671871C11.078 -0.398813 14.869 1.59419 15.392 5.50719C15.982 9.92319 13.569 14.7072 9.25002 14.3622C8.07902 14.2692 7.58702 13.6722 6.67002 13.0972Z" fill="#95E1D3"/>
</svg>
