<svg width="14" height="14" viewBox="0 0 14 14" fill="none" xmlns="http://www.w3.org/2000/svg">
<path d="M5.05161 10.298C4.07863 10.298 3.12753 10.0093 2.31871 9.46842C1.5099 8.92758 0.879742 8.15892 0.508022 7.25974C0.136301 6.36057 0.0397321 5.37132 0.23054 4.41723C0.421349 3.46314 0.890954 2.58712 1.5799 1.90007C2.26885 1.21302 3.14617 0.74584 4.10078 0.557668C5.05539 0.369496 6.04437 0.468798 6.94251 0.843001C7.84066 1.2172 8.60758 1.84948 9.14618 2.65979C9.68478 3.47009 9.97085 4.42199 9.96817 5.39497C9.96279 6.69601 9.44264 7.94204 8.52139 8.86076C7.60013 9.77947 6.35267 10.2962 5.05161 10.298ZM5.05161 1.14299C4.21391 1.143 3.395 1.39124 2.69829 1.85636C2.00159 2.32149 1.45833 2.98264 1.13714 3.75632C0.815954 4.52999 0.731231 5.3815 0.893675 6.2033C1.05612 7.0251 1.45844 7.78033 2.04984 8.37362C2.64124 8.96691 3.39518 9.37164 4.21645 9.53671C5.03773 9.70178 5.8895 9.61978 6.6642 9.30106C7.4389 8.98235 8.10179 8.44121 8.56914 7.74599C9.03649 7.05078 9.28734 6.23266 9.29002 5.39497C9.29002 4.27087 8.84348 3.19281 8.04862 2.39796C7.25376 1.6031 6.17571 1.15655 5.05161 1.15655V1.14299Z" fill="white"/>
<path d="M12.6807 13.3631C12.6363 13.3636 12.5922 13.3548 12.5513 13.3373C12.5104 13.3198 12.4737 13.2939 12.4434 13.2613L8.049 8.86696C7.98605 8.80401 7.95068 8.71863 7.95068 8.62961C7.95068 8.54059 7.98605 8.45521 8.049 8.39226C8.11195 8.32931 8.19732 8.29395 8.28635 8.29395C8.37537 8.29395 8.46075 8.32931 8.5237 8.39226L12.9181 12.7866C12.9505 12.8171 12.9764 12.8539 12.994 12.8947C13.0117 12.9355 13.0208 12.9795 13.0208 13.024C13.0208 13.0685 13.0117 13.1125 12.994 13.1533C12.9764 13.1941 12.9505 13.2309 12.9181 13.2613C12.8878 13.2939 12.851 13.3198 12.8102 13.3373C12.7693 13.3548 12.7252 13.3636 12.6807 13.3631Z" fill="white"/>
</svg>
