<svg width="15" height="12" viewBox="0 0 15 12" fill="none" xmlns="http://www.w3.org/2000/svg">
<path d="M10.5439 8.15202H7.70248C7.61255 8.15202 7.5263 8.1163 7.46272 8.05271C7.39913 7.98912 7.3634 7.90288 7.3634 7.81295C7.3634 7.72302 7.39913 7.63678 7.46272 7.57319C7.5263 7.5096 7.61255 7.47388 7.70248 7.47388H10.5439C10.6338 7.47388 10.7201 7.5096 10.7837 7.57319C10.8473 7.63678 10.883 7.72302 10.883 7.81295C10.883 7.90288 10.8473 7.98912 10.7837 8.05271C10.7201 8.1163 10.6338 8.15202 10.5439 8.15202Z" fill="white"/>
<path d="M12.4563 7.94172C12.4162 7.95124 12.3744 7.95124 12.3343 7.94172C12.2925 7.92666 12.2541 7.90337 12.2215 7.87323C12.1888 7.84309 12.1626 7.80672 12.1442 7.76625C12.1259 7.72579 12.1159 7.68206 12.1147 7.63765C12.1136 7.59324 12.1214 7.54906 12.1376 7.5077L13.7516 3.1947C13.7835 3.11142 13.847 3.04409 13.9282 3.00728C14.0095 2.97047 14.1019 2.96715 14.1856 2.99803C14.2695 3.03147 14.3374 3.09583 14.3752 3.17785C14.4131 3.25986 14.418 3.35328 14.389 3.43883L12.7751 7.73149C12.7477 7.79343 12.7031 7.84619 12.6466 7.88347C12.5901 7.92075 12.524 7.94097 12.4563 7.94172Z" fill="white"/>
<path d="M5.53243 8.07061C5.46168 8.07112 5.39261 8.04903 5.33528 8.00756C5.27795 7.96609 5.23536 7.9074 5.2137 7.84004L3.08433 1.37053H1.04989C0.959961 1.37053 0.873716 1.3348 0.810128 1.27122C0.746539 1.20763 0.710815 1.12138 0.710815 1.03146C0.712552 0.942072 0.748833 0.856832 0.812049 0.793616C0.875265 0.7304 0.960504 0.694119 1.04989 0.692383H3.32846C3.39872 0.693881 3.46686 0.716748 3.5238 0.757939C3.58074 0.79913 3.62378 0.856689 3.64719 0.922952L5.87829 7.62303C5.89315 7.66485 5.89948 7.70923 5.89691 7.75353C5.89434 7.79784 5.88292 7.84119 5.86333 7.88101C5.84373 7.92083 5.81636 7.95633 5.78282 7.9854C5.74928 8.01447 5.71026 8.03652 5.66806 8.05026C5.62498 8.06725 5.5786 8.0742 5.53243 8.07061Z" fill="white"/>
<path d="M6.5768 11.1223C6.17442 11.1223 5.78109 11.003 5.44652 10.7795C5.11196 10.5559 4.8512 10.2382 4.69722 9.86645C4.54324 9.49471 4.50295 9.08565 4.58145 8.69101C4.65995 8.29636 4.85371 7.93386 5.13823 7.64934C5.42275 7.36482 5.78526 7.17106 6.1799 7.09256C6.57454 7.01406 6.9836 7.05435 7.35534 7.20833C7.72709 7.36231 8.04482 7.62307 8.26837 7.95763C8.49192 8.29219 8.61123 8.68553 8.61123 9.0879C8.61123 9.62747 8.39689 10.1449 8.01536 10.5265C7.63383 10.908 7.11636 11.1223 6.5768 11.1223ZM6.5768 7.73161C6.30855 7.73161 6.04632 7.81116 5.82328 7.96019C5.60024 8.10922 5.4264 8.32104 5.32375 8.56887C5.22109 8.8167 5.19423 9.08941 5.24657 9.3525C5.2989 9.6156 5.42807 9.85727 5.61775 10.0469C5.80743 10.2366 6.0491 10.3658 6.3122 10.4181C6.57529 10.4705 6.848 10.4436 7.09583 10.341C7.34366 10.2383 7.55548 10.0645 7.70451 9.84142C7.85354 9.61838 7.93309 9.35615 7.93309 9.0879C7.93309 8.72819 7.79019 8.38322 7.53584 8.12886C7.28148 7.87451 6.93651 7.73161 6.5768 7.73161Z" fill="white"/>
<path d="M11.6696 11.1223C11.2673 11.1223 10.8739 11.003 10.5394 10.7795C10.2048 10.5559 9.94404 10.2382 9.79006 9.86645C9.63607 9.49471 9.59579 9.08565 9.67428 8.69101C9.75278 8.29636 9.94655 7.93386 10.2311 7.64934C10.5156 7.36482 10.8781 7.17106 11.2727 7.09256C11.6674 7.01406 12.0764 7.05435 12.4482 7.20833C12.8199 7.36231 13.1377 7.62307 13.3612 7.95763C13.5848 8.29219 13.7041 8.68553 13.7041 9.0879C13.7041 9.62747 13.4897 10.1449 13.1082 10.5265C12.7267 10.908 12.2092 11.1223 11.6696 11.1223ZM11.6696 7.73161C11.4014 7.73161 11.1392 7.81116 10.9161 7.96019C10.6931 8.10922 10.5192 8.32104 10.4166 8.56887C10.3139 8.8167 10.2871 9.08941 10.3394 9.3525C10.3917 9.6156 10.5209 9.85727 10.7106 10.0469C10.9003 10.2366 11.1419 10.3658 11.405 10.4181C11.6681 10.4705 11.9408 10.4436 12.1887 10.341C12.4365 10.2383 12.6483 10.0645 12.7973 9.84142C12.9464 9.61838 13.0259 9.35615 13.0259 9.0879C13.0259 8.72819 12.883 8.38322 12.6287 8.12886C12.3743 7.87451 12.0293 7.73161 11.6696 7.73161Z" fill="white"/>
</svg>
