<svg width="22" height="35" viewBox="0 0 22 35" fill="none" xmlns="http://www.w3.org/2000/svg">
<path d="M10.6851 16.265C9.55676 16.265 8.45376 15.9304 7.51558 15.3035C6.5774 14.6766 5.84617 13.7856 5.41437 12.7432C4.98258 11.7007 4.8696 10.5537 5.08972 9.44699C5.30985 8.34033 5.8532 7.3238 6.65106 6.52594C7.44892 5.72808 8.46545 5.18473 9.57211 4.9646C10.6788 4.74447 11.8259 4.85745 12.8683 5.28925C13.9108 5.72105 14.8018 6.45227 15.4286 7.39045C16.0555 8.32864 16.3901 9.43164 16.3901 10.56C16.3901 12.073 15.789 13.5241 14.7191 14.594C13.6493 15.6639 12.1982 16.265 10.6851 16.265ZM10.6851 6.60498C9.90288 6.60498 9.13822 6.83694 8.48782 7.27152C7.83743 7.7061 7.33051 8.32379 7.03116 9.04647C6.73182 9.76915 6.65349 10.5644 6.8061 11.3316C6.9587 12.0988 7.33538 12.8035 7.8885 13.3566C8.44162 13.9097 9.14633 14.2864 9.91352 14.439C10.6807 14.5916 11.4759 14.5133 12.1986 14.2139C12.9213 13.9146 13.539 13.4077 13.9736 12.7573C14.4081 12.1069 14.6401 11.3422 14.6401 10.56C14.6401 9.51105 14.2234 8.50508 13.4817 7.76338C12.74 7.02167 11.734 6.60498 10.6851 6.60498Z" fill="#F38281"/>
<path d="M20.5551 13.3951H20.4151C20.2002 13.3411 20.0131 13.209 19.8902 13.0247C19.7673 12.8403 19.7173 12.6168 19.7501 12.3976V12.1176C19.7559 11.9952 19.7559 11.8726 19.7501 11.7501C19.7673 11.5697 19.7673 11.3881 19.7501 11.2076C19.7501 10.7526 19.7501 10.5251 19.7501 10.5251C19.7501 8.172 18.8153 5.91525 17.1514 4.25133C15.4875 2.58742 13.2307 1.65264 10.8776 1.65264C8.52446 1.65264 6.26771 2.58742 4.60379 4.25133C2.93987 5.91525 2.0051 8.172 2.0051 10.5251C2.0051 10.5251 2.0051 10.7526 2.0051 11.0851C2.05386 11.3176 2.1364 11.5416 2.2501 11.7501V12.1876V12.4676C2.26733 12.5825 2.26177 12.6997 2.23372 12.8125C2.20567 12.9252 2.15569 13.0314 2.08662 13.1248C2.01756 13.2182 1.93077 13.2972 1.8312 13.3571C1.73164 13.417 1.62125 13.4566 1.50635 13.4739C1.39144 13.4911 1.27426 13.4856 1.16151 13.4575C1.04875 13.4295 0.942624 13.3795 0.849185 13.3104C0.755746 13.2413 0.676825 13.1546 0.616929 13.055C0.557032 12.9554 0.517332 12.845 0.500096 12.7301V12.1001C0.469695 11.8151 0.469695 11.5277 0.500096 11.2426V10.7001C0.500096 7.88287 1.61925 5.181 3.61135 3.1889C5.60346 1.19679 8.30533 0.0776367 11.1226 0.0776367C13.9399 0.0776367 16.6417 1.19679 18.6338 3.1889C20.6259 5.181 21.7451 7.88287 21.7451 10.7001C21.7451 10.7001 21.7451 10.9976 21.7451 11.3476C21.7419 11.6355 21.7126 11.9225 21.6576 12.2051L21.5001 12.6601C21.4695 12.8817 21.3536 13.0825 21.1771 13.2198C21.0006 13.3572 20.7774 13.4201 20.5551 13.3951Z" fill="#F38281"/>
<path d="M11.0001 34.0628C10.8853 34.0642 10.7715 34.0416 10.666 33.9964C10.5605 33.9511 10.4657 33.8844 10.3876 33.8003C1.11256 24.5253 0.500058 11.1553 0.377558 10.5953C0.372869 10.4804 0.390886 10.3656 0.430579 10.2577C0.470271 10.1497 0.530859 10.0507 0.608878 9.96613C0.686897 9.88161 0.780815 9.8133 0.885259 9.76511C0.989702 9.71693 1.10262 9.6898 1.21756 9.6853C1.33249 9.68061 1.44721 9.69862 1.55517 9.73832C1.66313 9.77801 1.7622 9.8386 1.84673 9.91662C1.93125 9.99464 1.99955 10.0886 2.04774 10.193C2.09593 10.2974 2.12305 10.4104 2.12756 10.5253C2.12756 10.6478 2.84506 23.7903 11.6126 32.5753C11.6963 32.6539 11.763 32.7487 11.8086 32.8541C11.8542 32.9594 11.8777 33.073 11.8777 33.1878C11.8777 33.3026 11.8542 33.4162 11.8086 33.5215C11.763 33.6269 11.6963 33.7217 11.6126 33.8003C11.5344 33.8844 11.4396 33.9511 11.3341 33.9964C11.2286 34.0416 11.1148 34.0642 11.0001 34.0628Z" fill="#F38281"/>
<path d="M11.0001 34.0627C10.8853 34.0641 10.7716 34.0415 10.6661 33.9963C10.5606 33.9511 10.4657 33.8843 10.3876 33.8002C10.3039 33.7217 10.2372 33.6268 10.1916 33.5215C10.146 33.4161 10.1224 33.3025 10.1224 33.1877C10.1224 33.073 10.146 32.9594 10.1916 32.854C10.2372 32.7487 10.3039 32.6538 10.3876 32.5752C19.1376 23.8252 19.8551 10.6477 19.8726 10.5252C19.8664 10.4072 19.8863 10.2892 19.9309 10.1797C19.9755 10.0702 20.0436 9.97189 20.1305 9.89171C20.2173 9.81152 20.3208 9.75145 20.4335 9.71577C20.5462 9.68009 20.6654 9.66966 20.7826 9.68525C21.0131 9.69878 21.2295 9.80115 21.3861 9.97085C21.5428 10.1405 21.6275 10.3644 21.6226 10.5952C21.6226 11.1552 20.8876 24.5952 11.6126 33.8002C11.5345 33.8843 11.4396 33.9511 11.3341 33.9963C11.2286 34.0415 11.1149 34.0641 11.0001 34.0627Z" fill="#F38281"/>
</svg>
