<svg width="38" height="34" viewBox="0 0 38 34" fill="none" xmlns="http://www.w3.org/2000/svg">
<path d="M19 23.7201C16.4427 23.7201 13.9901 22.7042 12.1817 20.8959C10.3734 19.0876 9.35752 16.635 9.35752 14.0776V2.38765C9.33086 2.02647 9.33086 1.66382 9.35752 1.30265C9.3705 1.1897 9.4058 1.08046 9.46138 0.981281C9.51696 0.882102 9.59171 0.794965 9.68127 0.724941C9.77084 0.654916 9.87344 0.603402 9.98309 0.573394C10.0928 0.543386 10.2073 0.535484 10.32 0.550148C10.5494 0.576539 10.759 0.692516 10.9033 0.872805C11.0475 1.05309 11.1146 1.28308 11.09 1.51265C11.0721 1.80404 11.0721 2.09626 11.09 2.38765V14.0776C11.2233 16.0755 12.1109 17.948 13.5731 19.3159C15.0353 20.6838 16.9627 21.4449 18.965 21.4449C20.9673 21.4449 22.8948 20.6838 24.3569 19.3159C25.8191 17.948 26.7068 16.0755 26.84 14.0776V2.38765C26.858 2.09626 26.858 1.80404 26.84 1.51265C26.8122 1.28058 26.8777 1.04696 27.0221 0.863176C27.1665 0.67939 27.378 0.560496 27.61 0.532648C27.8421 0.5048 28.0757 0.570281 28.2595 0.714684C28.4433 0.859087 28.5622 1.07058 28.59 1.30265C28.6167 1.66382 28.6167 2.02647 28.59 2.38765V14.0776C28.5901 16.6259 27.5814 19.0706 25.7844 20.8774C23.9874 22.6843 21.5483 23.7063 19 23.7201Z" fill="white"/>
<path d="M28.7125 13.0102C28.5508 13.0065 28.3933 12.958 28.2575 12.8702L27.3125 12.3102C27.1129 12.1895 26.9695 11.9945 26.9137 11.7681C26.8579 11.5416 26.8943 11.3023 27.015 11.1027C27.1357 10.9031 27.3307 10.7597 27.5571 10.7039C27.7836 10.6481 28.0229 10.6845 28.2225 10.8052L28.94 11.2427C34.3475 11.0677 35.38 4.66271 35.5725 2.28271H2.41C2.6025 4.68021 3.5825 11.0327 9.06 11.2427L9.7775 10.8052C9.87632 10.7455 9.98594 10.7058 10.1001 10.6884C10.2143 10.671 10.3307 10.6763 10.4429 10.7039C10.555 10.7315 10.6606 10.7809 10.7536 10.8494C10.8466 10.9178 10.9252 11.0039 10.985 11.1027C11.0448 11.2015 11.0845 11.3112 11.1018 11.4253C11.1192 11.5395 11.114 11.656 11.0863 11.7681C11.0587 11.8802 11.0093 11.9858 10.9408 12.0788C10.8724 12.1718 10.7863 12.2505 10.6875 12.3102L9.7425 12.8702C9.60669 12.958 9.44919 13.0065 9.2875 13.0102C2.445 13.0102 0.625 5.41521 0.625 1.40771C0.625 1.17565 0.717187 0.953091 0.881282 0.788997C1.04538 0.624902 1.26794 0.532715 1.5 0.532715H36.5C36.7321 0.532715 36.9546 0.624902 37.1187 0.788997C37.2828 0.953091 37.375 1.17565 37.375 1.40771C37.375 5.41521 35.555 13.0102 28.7125 13.0102Z" fill="white"/>
<path d="M19 33.4677C18.7679 33.4677 18.5454 33.3755 18.3813 33.2114C18.2172 33.0473 18.125 32.8248 18.125 32.5927V22.8452C18.125 22.6132 18.2172 22.3906 18.3813 22.2265C18.5454 22.0624 18.7679 21.9702 19 21.9702C19.2321 21.9702 19.4546 22.0624 19.6187 22.2265C19.7828 22.3906 19.875 22.6132 19.875 22.8452V32.5927C19.875 32.8248 19.7828 33.0473 19.6187 33.2114C19.4546 33.3755 19.2321 33.4677 19 33.4677Z" fill="white"/>
<path d="M28.7476 33.4678H11.2476C11.0155 33.4678 10.7929 33.3756 10.6288 33.2115C10.4647 33.0474 10.3726 32.8248 10.3726 32.5928C10.3726 32.3607 10.4647 32.1381 10.6288 31.9741C10.7929 31.81 11.0155 31.7178 11.2476 31.7178H28.7476C28.9796 31.7178 29.2022 31.81 29.3663 31.9741C29.5304 32.1381 29.6226 32.3607 29.6226 32.5928C29.6226 32.8248 29.5304 33.0474 29.3663 33.2115C29.2022 33.3756 28.9796 33.4678 28.7476 33.4678Z" fill="white"/>
</svg>
